<svg xmlns="http://www.w3.org/2000/svg" style="display: none;">
    <defs>
        <!-- Иконка VK -->
        <symbol id="vk" viewBox="0 0 50 50">

            <path
                d="M25 1C11.745 1 1 11.745 1 25C1 38.255 11.745 49 25 49C38.255 49 49 38.255 49 25C49 11.745 38.255 1 25 1ZM34.23 28.0775C34.23 28.0775 36.3525 30.1725 36.875 31.145C36.89 31.165 36.8975 31.185 36.9025 31.195C37.115 31.5525 37.165 31.83 37.06 32.0375C36.885 32.3825 36.285 32.5525 36.08 32.5675H32.33C32.07 32.5675 31.525 32.5 30.865 32.045C30.3575 31.69 29.8575 31.1075 29.37 30.54C28.6425 29.695 28.0125 28.965 27.3775 28.965C27.2969 28.9649 27.2167 28.9775 27.14 29.0025C26.66 29.1575 26.045 29.8425 26.045 31.6675C26.045 32.2375 25.595 32.565 25.2775 32.565H23.56C22.975 32.565 19.9275 32.36 17.2275 29.5125C13.9225 26.025 10.9475 19.03 10.9225 18.965C10.735 18.5125 11.1225 18.27 11.545 18.27H15.3325C15.8375 18.27 16.0025 18.5775 16.1175 18.85C16.2525 19.1675 16.7475 20.43 17.56 21.85C18.8775 24.165 19.685 25.105 20.3325 25.105C20.4539 25.1036 20.5732 25.0727 20.68 25.015C21.525 24.545 21.3675 21.5325 21.33 20.9075C21.33 20.79 21.3275 19.56 20.895 18.97C20.585 18.5425 20.0575 18.38 19.7375 18.32C19.867 18.1413 20.0377 17.9964 20.235 17.8975C20.815 17.6075 21.86 17.565 22.8975 17.565H23.475C24.6 17.58 24.89 17.6525 25.2975 17.755C26.1225 17.9525 26.14 18.485 26.0675 20.3075C26.045 20.825 26.0225 21.41 26.0225 22.1C26.0225 22.25 26.015 22.41 26.015 22.58C25.99 23.5075 25.96 24.56 26.615 24.9925C26.7004 25.0461 26.7992 25.0746 26.9 25.075C27.1275 25.075 27.8125 25.075 29.6675 21.8925C30.2396 20.8681 30.7367 19.8037 31.155 18.7075C31.1925 18.6425 31.3025 18.4425 31.4325 18.365C31.5284 18.3161 31.6348 18.2912 31.7425 18.2925H36.195C36.68 18.2925 37.0125 18.365 37.075 18.5525C37.185 18.85 37.055 19.7575 35.0225 22.51L34.115 23.7075C32.2725 26.1225 32.2725 26.245 34.23 28.0775Z" />

        </symbol>

        <symbol id="dzen" viewBox="0 0 50 50">
            <path
                d="M46.8937 23.9859C46.8977 23.9859 46.9007 23.9859 46.9047 23.9859C47.1837 23.9859 47.4497 23.8689 47.6387 23.6639C47.8307 23.4559 47.9257 23.1769 47.9007 22.8949C46.8967 11.8519 38.1537 3.1059 27.1097 2.0999C26.8297 2.0779 26.5477 2.1689 26.3397 2.3619C26.1317 2.5539 26.0157 2.8249 26.0187 3.1079C26.1927 17.7839 28.1287 23.7809 46.8937 23.9859ZM46.8937 26.0139C28.1287 26.2189 26.1937 32.2159 26.0197 46.8919C26.0167 47.1749 26.1327 47.4459 26.3407 47.6379C26.5267 47.8089 26.7697 47.9039 27.0197 47.9039C27.0497 47.9039 27.0807 47.9029 27.1107 47.8999C38.1547 46.8939 46.8977 38.1489 47.9007 27.1049C47.9257 26.8229 47.8317 26.5439 47.6387 26.3359C47.4457 26.1279 47.1767 26.0249 46.8937 26.0139ZM22.8227 2.1049C11.8137 3.1399 3.09866 11.8839 2.09966 22.8969C2.07466 23.1789 2.16866 23.4579 2.36166 23.6659C2.55066 23.8709 2.81766 23.9869 3.09566 23.9869C3.09966 23.9869 3.10366 23.9869 3.10766 23.9869C21.8107 23.7719 23.7417 17.7779 23.9177 3.1119C23.9207 2.8289 23.8037 2.5569 23.5957 2.3649C23.3857 2.1729 23.1047 2.0789 22.8227 2.1049ZM3.10666 26.0129C2.79566 25.9779 2.55166 26.1259 2.36066 26.3339C2.16866 26.5419 2.07366 26.8209 2.09866 27.1029C3.09766 38.1159 11.8137 46.8599 22.8227 47.8949C22.8537 47.8979 22.8857 47.8989 22.9167 47.8989C23.1667 47.8989 23.4087 47.8049 23.5947 47.6339C23.8027 47.4419 23.9197 47.1699 23.9167 46.8869C23.7407 32.2219 21.8107 26.2279 3.10666 26.0129Z" />

        </symbol>

        <symbol id="arrow-down" viewBox="0 0 56 54">
            <path fill-rule="evenodd" clip-rule="evenodd"
                d="M0.0601807 25.9409L27.9281 53.7999L55.9398 25.9409L49.9441 19.9471L27.9281 42.0042L5.86401 19.9471L0.0601807 25.9409ZM0.0601807 5.94575L27.9281 33.8527L55.9398 5.94575L49.9441 0L27.9281 21.8652L5.86401 0L0.0601807 5.94575Z"
                fill="white" />
        </symbol>


        <symbol id="whatsapp" viewBox="0 0 50 50">

            <path
                d="M43.5934 13.25C37.0622 3.12501 23.6872 0.12501 13.3434 6.40626C3.24967 12.6875 -0.000332594 26.375 6.53092 36.4688L7.06217 37.2813L4.87467 45.4688L13.0622 43.2813L13.8747 43.8125C17.4059 45.7188 21.2497 46.8125 25.0622 46.8125C29.1559 46.8125 33.2497 45.7188 36.7809 43.5313C46.8747 36.9688 49.8747 23.5625 43.5934 13.1875V13.25ZM37.8747 34.3125C36.7809 35.9375 35.4059 37.0313 33.4997 37.3125C32.4059 37.3125 31.0309 37.8438 25.5934 35.6875C20.9684 33.5 17.1247 29.9375 14.4059 25.8438C12.7809 23.9375 11.9372 21.4688 11.6872 19C11.6872 16.8125 12.4997 14.9063 13.8747 13.5313C14.4059 13 14.9684 12.7188 15.4997 12.7188H16.8747C17.4059 12.7188 17.9684 12.7188 18.2497 13.8125C18.7809 15.1875 20.1559 18.4688 20.1559 18.75C20.4372 19.0313 20.3122 21.125 19.0622 22.3125C18.3747 23.0938 18.2497 23.125 18.5309 23.6875C19.6247 25.3125 20.9997 26.9688 22.3434 28.3438C23.9684 29.7188 25.6247 30.8125 27.5309 31.625C28.0622 31.9063 28.6247 31.9063 28.9059 31.3438C29.1872 30.8125 30.5309 29.4375 31.0934 28.875C31.6247 28.3438 31.9059 28.3438 32.4684 28.5938L36.8434 30.7813C37.3747 31.0625 37.9372 31.3125 38.2184 31.5938C38.4997 32.4063 38.4997 33.5 37.9372 34.3125H37.8747Z" />

        </symbol>

        <symbol id="btn-arrow-left" viewBox="0 0 47 46">
            <path id="arrow-left" fill-rule="evenodd" clip-rule="evenodd"
                d="M23.5793 0C17.5563 0.030287 11.7861 2.42374 7.51092 6.66505C3.2462 10.9241 0.848039 16.702 0.84375 22.7283C0.84375 25.7193 1.43306 28.681 2.57804 31.4444C3.72302 34.2077 5.40128 36.7186 7.51692 38.8335C9.63257 40.9485 12.1442 42.6262 14.9085 43.7708C17.6727 44.9154 20.6353 45.5045 23.6273 45.5045C26.6192 45.5045 29.5819 44.9154 32.3462 43.7708C35.1104 42.6262 37.622 40.9485 39.7377 38.8335C41.8533 36.7186 43.5315 34.2077 44.6765 31.4444C45.8215 28.681 46.4108 25.7193 46.4108 22.7283C46.4065 16.702 44.0083 10.9241 39.7436 6.66505C35.4419 2.40485 29.6345 0.0102873 23.5793 0ZM26.2654 13.1863L16.9122 22.7763C16.9122 22.7763 16.9122 23.016 16.9122 23.1599L26.2654 32.7499C26.2924 32.7805 26.3256 32.805 26.3628 32.8218C26.4 32.8386 26.4404 32.8472 26.4812 32.8472C26.522 32.8472 26.5624 32.8386 26.5996 32.8218C26.6368 32.805 26.67 32.7805 26.697 32.7499L28.7116 30.688L21.3729 22.8242L28.7116 15.4878L26.697 13.4259C26.67 13.3953 26.6368 13.3708 26.5996 13.354C26.5624 13.3372 26.522 13.3286 26.4812 13.3286C26.4404 13.3286 26.4 13.3372 26.3628 13.354C26.3256 13.3708 26.2924 13.3953 26.2654 13.4259V13.1863Z"
            />
        </symbol>

        <symbol id="btn-arrow-right" viewBox="0 0 47 46">
            <path id="arrow-right" fill-rule="evenodd" clip-rule="evenodd"
                d="M23.6752 45.5044C29.6982 45.4741 35.4684 43.0807 39.7436 38.8393C44.0083 34.5803 46.4065 28.8024 46.4108 22.7761C46.4108 19.7851 45.8215 16.8234 44.6765 14.06C43.5315 11.2967 41.8532 8.78583 39.7376 6.67086C37.6219 4.55589 35.1103 2.87825 32.3461 1.73363C29.5818 0.589014 26.6192 -0.000112356 23.6273 -0.000112618C20.6353 -0.00011288 17.6726 0.589013 14.9084 1.73363C12.1441 2.87824 9.63248 4.55589 7.51684 6.67086C5.40119 8.78583 3.72301 11.2967 2.57803 14.06C1.43305 16.8234 0.843737 19.7851 0.843737 22.7761C0.848024 28.8024 3.24618 34.5803 7.51091 38.8393C11.8126 43.0995 17.62 45.4941 23.6752 45.5044ZM20.9891 32.3181L30.3424 22.7281C30.3424 22.7281 30.3424 22.4884 30.3424 22.3445L20.9891 12.7545C20.9621 12.7239 20.9289 12.6994 20.8917 12.6826C20.8545 12.6658 20.8141 12.6571 20.7733 12.6571C20.7325 12.6571 20.6921 12.6658 20.6549 12.6826C20.6177 12.6994 20.5845 12.7239 20.5575 12.7545L18.5429 14.8164L25.8816 22.6802L18.5429 30.0166L20.5575 32.0785C20.5845 32.1091 20.6177 32.1336 20.6549 32.1504C20.6921 32.1672 20.7325 32.1758 20.7733 32.1758C20.8141 32.1758 20.8545 32.1672 20.8917 32.1504C20.9289 32.1336 20.9621 32.1091 20.9891 32.0785L20.9891 32.3181Z"
            />

        </symbol>


        <!-- Добавьте другие иконки по аналогии -->
    </defs>
</svg>